<?xml version="1.0" encoding="utf-8"?>
<!-- Generator: Adobe Illustrator 16.0.0, SVG Export Plug-In . SVG Version: 6.00 Build 0)  -->
<!DOCTYPE svg PUBLIC "-//W3C//DTD SVG 1.1//EN" "http://www.w3.org/Graphics/SVG/1.1/DTD/svg11.dtd">
<svg version="1.1" id="Layer_1" xmlns="http://www.w3.org/2000/svg" xmlns:xlink="http://www.w3.org/1999/xlink" x="0px" y="0px"
	 width="40px" height="40px" viewBox="0 0 40 40" enable-background="new 0 0 40 40" xml:space="preserve">
<path id="Blue_1_" fill="#3B5999" d="M37.8,0H2.2C1,0,0,1,0,2.2v35.6C0,39,1,40,2.2,40h19.2V24.5h-5.2v-6h5.2V14c0-5.2,3.2-8,7.8-8
	c2.2,0,4.1,0.2,4.7,0.2v5.4l-3.2,0c-2.5,0-3,1.2-3,2.9v3.9h6l-0.8,6h-5.2V40h10.2c1.2,0,2.2-1,2.2-2.2V2.2C40,1,39,0,37.8,0z"/>
</svg>
