<?xml version="1.0" encoding="utf-8"?>
<!-- Generator: Adobe Illustrator 16.0.0, SVG Export Plug-In . SVG Version: 6.00 Build 0)  -->
<!DOCTYPE svg PUBLIC "-//W3C//DTD SVG 1.1//EN" "http://www.w3.org/Graphics/SVG/1.1/DTD/svg11.dtd">
<svg version="1.1" xmlns="http://www.w3.org/2000/svg" xmlns:xlink="http://www.w3.org/1999/xlink" x="0px" y="0px" width="40px"
	 height="40px" viewBox="0 0 40 40" enable-background="new 0 0 40 40" xml:space="preserve">
<g id="Layer_1" display="none">
	<path id="Blue_1_" display="inline" fill="#FFFFFF" d="M37.8,0H2.2C1,0,0,1,0,2.2v35.6C0,39,1,40,2.2,40h35.6c1.2,0,2.2-1,2.2-2.2
		V2.2C40,1,39,0,37.8,0z"/>
</g>
<g id="Layer_2">
	<path fill-rule="evenodd" clip-rule="evenodd" fill="#3F729B" d="M5.1,0h29.7C37.7,0,40,2.3,40,5.1v29.7c0,2.8-2.3,5.1-5.1,5.1H5.1
		C2.3,40,0,37.7,0,34.9V5.1C0,2.3,2.3,0,5.1,0L5.1,0z M29.1,4.4c-1,0-1.8,0.8-1.8,1.8v4.3c0,1,0.8,1.8,1.8,1.8h4.5
		c1,0,1.8-0.8,1.8-1.8V6.2c0-1-0.8-1.8-1.8-1.8H29.1L29.1,4.4z M35.5,16.9H32c0.3,1.1,0.5,2.2,0.5,3.4c0,6.7-5.6,12-12.4,12
		c-6.9,0-12.4-5.4-12.4-12c0-1.2,0.2-2.3,0.5-3.4H4.4v16.9c0,0.9,0.7,1.6,1.6,1.6h27.9c0.9,0,1.6-0.7,1.6-1.6V16.9L35.5,16.9z
		 M20,12.1c-4.4,0-8,3.5-8,7.8s3.6,7.8,8,7.8s8-3.5,8-7.8S24.5,12.1,20,12.1z"/>
</g>
</svg>
