<?xml version="1.0" encoding="utf-8"?>
<!-- Generator: Adobe Illustrator 16.0.0, SVG Export Plug-In . SVG Version: 6.00 Build 0)  -->
<!DOCTYPE svg PUBLIC "-//W3C//DTD SVG 1.1//EN" "http://www.w3.org/Graphics/SVG/1.1/DTD/svg11.dtd">
<svg version="1.1" id="Layer_1" xmlns="http://www.w3.org/2000/svg" xmlns:xlink="http://www.w3.org/1999/xlink" x="0px" y="0px"
	 width="190px" height="75px" viewBox="0 0 190 75" enable-background="new 0 0 190 75" xml:space="preserve">
<path fill="#008BC0" d="M8.8,1.8H1.2v37.4h21.3v-6.7H8.8V1.8z M26.5,39.2h7.4V11.7h-7.4V39.2z M26.5,8.1h7.4V0.7h-7.4V8.1z M42,10.5
	v1.2h-3v6.3h3v21.2h7.4V17.9h6.7v-6.3h-6.7v-1.2c0-2.8,0.5-3.9,2.6-3.9c1.8,0,4.2,0.1,4.2,0.1l0.1-6c0,0-4.5-0.7-6.3-0.7
	C44.1,0,42,2.5,42,10.5z M70.9,11c-8,0-12.2,5-12.2,14.8c0,9.9,3.5,14,11.8,14c5.1,0,11.4-1.5,11.4-1.5l-0.1-5.4
	c0,0-5.7,0.5-10.2,0.5c-4,0-5.5-1.5-5.6-4.8h16.2l0.6-5.1C82.9,15.1,79,11,70.9,11z M66.2,23c0.1-4.2,1.3-5.9,4.8-5.9
	c3.5,0,4.7,1.4,4.7,5.9H66.2z M116.6,14.1c0-8.5-4.7-12.3-13.2-12.3H88.9v37.4h7.6V26.6h7.3l4.3,12.5h8.3l-5.3-14.3
	C114.5,22.7,116.6,19.3,116.6,14.1z M103.5,20.1h-7V8.3h6.9c3.6,0,5.4,2.4,5.4,5.9C108.9,17.5,107.3,20.1,103.5,20.1z M143.2,31.7
	V20.3c0-6.4-2.9-9.2-10-9.2c-5.3,0-11.2,1.6-11.2,1.6l0.2,5.1c0,0,6.7-0.4,10.3-0.4c2.2,0,3.2,0.6,3.2,3V22l-5.9,0.4
	c-6.1,0.4-9.6,2.2-9.6,8.4c0,5.8,2.8,9,8.5,9c4.1,0,8.1-1.9,8.1-1.9c2.3,1.5,4.2,1.9,7.9,1.9l0.2-5.6
	C143.5,34,143.3,33.4,143.2,31.7z M135.8,33c0,0-3,0.9-5.4,0.9c-2,0-2.7-1.3-2.7-3.2c0-2,1.2-2.9,3.1-3.1l5-0.4V33z M151.5,10.5v1.2
	h-3v6.3h3v21.2h7.4V17.9h6.7v-6.3h-6.7v-1.2c0-2.8,0.5-3.9,2.6-3.9c1.8,0,4.2,0.1,4.2,0.1l0.1-6c0,0-4.5-0.7-6.3-0.7
	C153.6,0,151.5,2.5,151.5,10.5z M184.8,33.1c0,0-2.6,0.1-4.2,0.1c-2.3,0-2.3-1.3-2.3-4V17.9h6.8v-6.3h-6.8V4H171v7.7h-3.2v6.3h3.2
	v11.4c0,7.9,1.9,10.5,8.6,10.5c1.9,0,5.6-0.8,5.6-0.8L184.8,33.1z"/>
<g>
	<path fill="#008BC0" d="M188.1,66.4c0,0-20.1-4.5-48.2,0c-28.1,4.5-37,11.5-77.2,7.4c0,0,29.7-0.7,47.9-7.2
		C128.7,60.1,170,56,188.1,66.4z"/>
	<path fill="#008BC0" d="M143.2,57.7c0,0-22.1,2.4-38.9,7.1c-16.8,4.7-39.3,9.6-71.6,3.7c0,0,31.4,0.6,46.9-4.7
		C95.1,58.5,120.1,54.9,143.2,57.7z"/>
	<path fill="#008BC0" d="M81.2,59.7C31.3,66.7,0,57.4,0,57.4C35.2,71.8,71.4,62.6,81.2,59.7z"/>
</g>
<path fill="#333333" d="M7.2,45.2c0,1.5,0,2.9,0.2,4.2h0C6.9,48.3,6.3,47,5.7,46l-2.1-3.7H0.9v10.1H3v-3.1c0-1.7,0-3.1-0.1-4.4H3
	c0.5,1.2,1.2,2.5,1.8,3.6l2.2,3.9h2.4V42.2H7.2V45.2z M16.7,42.2l-3.1,10.1H16l0.7-2.6h2.9l0.8,2.6h2.5l-3.2-10.1H16.7z M17.1,48.1
	l0.6-2.2c0.2-0.6,0.3-1.4,0.5-2h0c0.2,0.6,0.3,1.4,0.5,2l0.6,2.2H17.1z M31.5,46.6c-0.3,1.2-0.7,2.4-0.9,3.6h0
	c-0.2-1.3-0.6-2.4-0.9-3.6l-1.2-4.3h-2.5l3.3,10.1h2.7l3.4-10.1h-2.4L31.5,46.6z M39.4,52.4h2.3V42.2h-2.3V52.4z M51.4,48.4h1.6v2.1
	c-0.2,0.1-0.6,0.1-1.1,0.1c-1.9,0-3.2-1.2-3.2-3.3c0-2.2,1.5-3.3,3.4-3.3c1.1,0,1.8,0.2,2.3,0.4l0.5-1.9c-0.5-0.2-1.5-0.5-2.8-0.5
	c-3.3,0-5.8,1.9-5.8,5.3c0,1.5,0.5,2.8,1.4,3.7c0.9,0.9,2.3,1.4,4.1,1.4c1.3,0,2.7-0.3,3.4-0.6v-5.3h-3.8V48.4z M62.3,42.2
	l-3.1,10.1h2.4l0.7-2.6h2.9l0.8,2.6h2.5l-3.2-10.1H62.3z M62.7,48.1l0.6-2.2c0.2-0.6,0.3-1.4,0.5-2h0c0.2,0.6,0.3,1.4,0.5,2l0.6,2.2
	H62.7z M71.5,44.2h2.7v8.2h2.3v-8.2h2.8v-1.9h-7.8V44.2z M83.6,52.4h2.3V42.2h-2.3V52.4z M97.2,45.2c0,1.5,0,2.9,0.2,4.2h0
	c-0.5-1.1-1.1-2.4-1.7-3.5l-2.1-3.7h-2.7v10.1H93v-3.1c0-1.7,0-3.1-0.1-4.4H93c0.5,1.2,1.2,2.5,1.8,3.6l2.2,3.9h2.4V42.2h-2.1V45.2z
	 M109.1,48.4h1.6v2.1c-0.2,0.1-0.6,0.1-1.1,0.1c-1.9,0-3.2-1.2-3.2-3.3c0-2.2,1.5-3.3,3.4-3.3c1.1,0,1.8,0.2,2.3,0.4l0.5-1.9
	c-0.5-0.2-1.5-0.5-2.8-0.5c-3.3,0-5.8,1.9-5.8,5.3c0,1.5,0.5,2.8,1.4,3.7c0.9,0.9,2.3,1.4,4.1,1.4c1.3,0,2.7-0.3,3.4-0.6v-5.3h-3.8
	V48.4z M127.7,46.4c-1.3-0.5-1.9-0.8-1.9-1.4c0-0.5,0.5-1,1.5-1c1,0,1.7,0.3,2.1,0.5l0.5-1.8c-0.6-0.3-1.4-0.5-2.6-0.5
	c-2.4,0-3.8,1.3-3.8,3c0,1.5,1.1,2.4,2.8,3c1.2,0.4,1.7,0.8,1.7,1.4c0,0.7-0.6,1.1-1.6,1.1c-1,0-1.9-0.3-2.5-0.6l-0.5,1.9
	c0.6,0.3,1.7,0.6,2.9,0.6c2.8,0,4.1-1.4,4.1-3.1C130.3,48,129.5,47,127.7,46.4z M139.4,42.1c-3,0-4.9,2.3-4.9,5.3
	c0,2.9,1.8,5.2,4.8,5.2c3,0,5-2,5-5.3C144.2,44.4,142.5,42.1,139.4,42.1z M139.3,50.7c-1.5,0-2.5-1.4-2.5-3.4c0-2,0.9-3.4,2.5-3.4
	c1.6,0,2.4,1.6,2.4,3.4C141.8,49.3,140.9,50.7,139.3,50.7z M153.9,44c0.8,0,1.5,0.2,1.9,0.4l0.5-1.8c-0.4-0.2-1.3-0.5-2.5-0.5
	c-3.1,0-5.5,1.9-5.5,5.4c0,2.9,1.8,5.1,5.3,5.1c1.2,0,2.2-0.2,2.6-0.4l-0.3-1.8c-0.5,0.2-1.2,0.3-1.9,0.3c-2,0-3.2-1.3-3.2-3.3
	C150.7,45.1,152.1,44,153.9,44z M160.8,52.4h2.3V42.2h-2.3V52.4z M170.4,42.2l-3.1,10.1h2.4l0.7-2.6h2.9l0.8,2.6h2.5l-3.2-10.1
	H170.4z M170.8,48.1l0.6-2.2c0.2-0.6,0.3-1.4,0.5-2h0c0.1,0.6,0.3,1.4,0.5,2l0.6,2.2H170.8z M183.3,50.5v-8.2H181v10.1h6.3v-1.9
	H183.3z"/>
</svg>
