<?xml version="1.0" encoding="utf-8"?>
<!-- Generator: Adobe Illustrator 16.0.0, SVG Export Plug-In . SVG Version: 6.00 Build 0)  -->
<!DOCTYPE svg PUBLIC "-//W3C//DTD SVG 1.1//EN" "http://www.w3.org/Graphics/SVG/1.1/DTD/svg11.dtd">
<svg version="1.1" xmlns="http://www.w3.org/2000/svg" xmlns:xlink="http://www.w3.org/1999/xlink" x="0px" y="0px" width="40px"
	 height="40px" viewBox="0 0 40 40" enable-background="new 0 0 40 40" xml:space="preserve">
<g id="Layer_1" display="none">
	<path id="Blue_1_" display="inline" fill="#FFFFFF" d="M37.8,0H2.2C1,0,0,1,0,2.2v35.6C0,39,1,40,2.2,40h35.6c1.2,0,2.2-1,2.2-2.2
		V2.2C40,1,39,0,37.8,0z"/>
</g>
<g id="Layer_2">
	<g>
		<path fill="#55ACEE" d="M33.5,14.1c0,0.3,0,0.6,0,0.9c0,9.2-7,19.8-19.8,19.8c-3.9,0-7.6-1.1-10.7-3.1c0.6,0.1,1.1,0.1,1.7,0.1
			c3.3,0,6.3-1.1,8.7-3c-3.1-0.1-5.6-2.1-6.5-4.8c0.4,0.1,0.9,0.1,1.3,0.1c0.6,0,1.3-0.1,1.8-0.2c-3.2-0.6-5.6-3.5-5.6-6.8
			c0,0,0-0.1,0-0.1c0.9,0.5,2,0.8,3.1,0.9c-1.9-1.3-3.1-3.4-3.1-5.8c0-1.3,0.3-2.5,1-3.5c3.4,4.2,8.6,7,14.4,7.3
			c-0.1-0.5-0.2-1.1-0.2-1.6c0-3.8,3.1-7,7-7c2,0,3.8,0.8,5.1,2.2c1.6-0.3,3.1-0.9,4.4-1.7c-0.5,1.6-1.6,3-3.1,3.8
			c1.4-0.1,2.8-0.5,4-1.1C36.1,11.9,34.9,13.1,33.5,14.1z"/>
	</g>
</g>
</svg>
