<?xml version="1.0" encoding="utf-8"?>
<!-- Generator: Adobe Illustrator 16.0.0, SVG Export Plug-In . SVG Version: 6.00 Build 0)  -->
<!DOCTYPE svg PUBLIC "-//W3C//DTD SVG 1.1//EN" "http://www.w3.org/Graphics/SVG/1.1/DTD/svg11.dtd">
<svg version="1.1" xmlns="http://www.w3.org/2000/svg" xmlns:xlink="http://www.w3.org/1999/xlink" x="0px" y="0px" width="40px"
	 height="40px" viewBox="0 0 40 40" enable-background="new 0 0 40 40" xml:space="preserve">
<g id="Layer_1" display="none">
	<path id="Blue_1_" display="inline" fill="#FFFFFF" d="M37.8,0H2.2C1,0,0,1,0,2.2v35.6C0,39,1,40,2.2,40h35.6c1.2,0,2.2-1,2.2-2.2
		V2.2C40,1,39,0,37.8,0z"/>
</g>
<g id="Layer_2">
	<path id="Triangle" fill="#FFFFFF" d="M16.3,24.7l9.7-5l-9.7-5.1V24.7z"/>
	<path id="The_Sharpness" opacity="0.12" fill-rule="evenodd" clip-rule="evenodd" fill="#420000" d="M16.3,14.6l8.5,5.7l1.2-0.6
		L16.3,14.6z"/>
	<g id="Lozenge">
		<g>
			<linearGradient id="SVGID_1_" gradientUnits="userSpaceOnUse" x1="19.9995" y1="7.3398" x2="19.9995" y2="32.6606">
				<stop  offset="0" style="stop-color:#E52D27"/>
				<stop  offset="1" style="stop-color:#BF171D"/>
			</linearGradient>
			<path fill="url(#SVGID_1_)" d="M37.6,12.8c0,0-0.4-2.5-1.4-3.6c-1.4-1.4-2.9-1.4-3.6-1.5C27.6,7.3,20,7.3,20,7.3h0
				c0,0-7.6,0-12.6,0.4C6.7,7.8,5.2,7.8,3.8,9.2c-1.1,1.1-1.4,3.6-1.4,3.6S2,15.7,2,18.6v2.7c0,2.9,0.4,5.8,0.4,5.8s0.4,2.5,1.4,3.6
				c1.4,1.4,3.2,1.4,4,1.5c2.9,0.3,12.2,0.4,12.2,0.4s7.6,0,12.6-0.4c0.7-0.1,2.2-0.1,3.6-1.5c1.1-1.1,1.4-3.6,1.4-3.6
				s0.4-2.9,0.4-5.8v-2.7C38,15.7,37.6,12.8,37.6,12.8z M16.3,24.7l0-10.1l9.7,5.1L16.3,24.7z"/>
		</g>
	</g>
</g>
</svg>
